HIERARCHY
ROOT Hips
{
	OFFSET 34.506699 -1.649406 99.928497
	CHANNELS 6 Xposition Yposition Zposition Xrotation Yrotation Zrotation
	JOINT spine
	{
		OFFSET 0.000000 -0.507025 8.817047
		CHANNELS 3 Xrotation Yrotation Zrotation
		JOINT spine1
		{
			OFFSET 0.000000 -0.000002 10.776596
			CHANNELS 3 Xrotation Yrotation Zrotation
			JOINT spine2
			{
				OFFSET 0.000000 -0.000002 10.325897
				CHANNELS 3 Xrotation Yrotation Zrotation
				JOINT Neck
				{
					OFFSET 0.000000 -1.263954 26.511002
					CHANNELS 3 Xrotation Yrotation Zrotation
					JOINT Head
					{
						OFFSET 0.000000 -0.000001 8.009659
						CHANNELS 3 Xrotation Yrotation Zrotation
						End Site
						{
							OFFSET 0.000000 6.393857 19.387894
						}
					}
				}
				JOINT RightShoulder
				{
					OFFSET -4.347950 0.605420 11.151199
					CHANNELS 3 Xrotation Yrotation Zrotation
					JOINT RightArm
					{
						OFFSET 0.000000 -0.000002 14.625793
						CHANNELS 3 Xrotation Yrotation Zrotation
						JOINT RightArmRoll
						{
							OFFSET 0.000000 -0.000001 7.383392
							CHANNELS 3 Xrotation Yrotation Zrotation
							JOINT RightForeArm
							{
								OFFSET 0.000000 -0.000003 21.505203
								CHANNELS 3 Xrotation Yrotation Zrotation
								JOINT RightForeArmRoll
								{
									OFFSET 0.000000 -0.000001 8.285324
									CHANNELS 3 Xrotation Yrotation Zrotation
									JOINT RightHand
									{
										OFFSET 0.000000 -0.000003 16.626801
										CHANNELS 3 Xrotation Yrotation Zrotation
										End Site
										{
											OFFSET 0.000000 0.000000 0.100006
										}
									}
								}
							}
						}
					}
				}
				JOINT LeftShoulder
				{
					OFFSET 4.347950 0.605420 11.151199
					CHANNELS 3 Xrotation Yrotation Zrotation
					JOINT LeftArm
					{
						OFFSET 0.000000 -0.000002 14.625793
						CHANNELS 3 Xrotation Yrotation Zrotation
						JOINT LeftArmRoll
						{
							OFFSET 0.000000 -0.000001 7.383392
							CHANNELS 3 Xrotation Yrotation Zrotation
							JOINT LeftForeArm
							{
								OFFSET 0.000000 -0.000003 21.505203
								CHANNELS 3 Xrotation Yrotation Zrotation
								JOINT LeftForeArmRoll
								{
									OFFSET 0.000000 -0.000001 8.285324
									CHANNELS 3 Xrotation Yrotation Zrotation
									JOINT LeftHand
									{
										OFFSET 0.000000 -0.000003 16.626801
										CHANNELS 3 Xrotation Yrotation Zrotation
										End Site
										{
											OFFSET 0.000000 0.000000 0.100006
										}
									}
								}
							}
						}
					}
				}
			}
		}
	}
	JOINT RightUpLeg
	{
		OFFSET -7.815100 1.202170 -1.433090
		CHANNELS 3 Xrotation Yrotation Zrotation
		JOINT RightUpLegRoll
		{
			OFFSET 0.000000 -0.000003 19.495895
			CHANNELS 3 Xrotation Yrotation Zrotation
			JOINT RightLeg
			{
				OFFSET 0.000000 0.000004 -24.142700
				CHANNELS 3 Xrotation Yrotation Zrotation
				JOINT RightLegRoll
				{
					OFFSET 0.000000 -0.000004 24.221703
					CHANNELS 3 Xrotation Yrotation Zrotation
					JOINT RightFoot
					{
						OFFSET 0.000000 -0.000003 20.160500
						CHANNELS 3 Xrotation Yrotation Zrotation
						JOINT RightToeBase
						{
							OFFSET 0.000000 -0.000003 16.853195
							CHANNELS 3 Xrotation Yrotation Zrotation
							End Site
							{
								OFFSET 0.007143 0.940779 8.161865
							}
						}
					}
				}
			}
		}
	}
	JOINT LeftUpLeg
	{
		OFFSET 7.815102 1.202170 -1.433090
		CHANNELS 3 Xrotation Yrotation Zrotation
		JOINT LeftUpLegRoll
		{
			OFFSET 0.000000 -0.000003 19.496002
			CHANNELS 3 Xrotation Yrotation Zrotation
			JOINT LeftLeg
			{
				OFFSET 0.000000 -0.000004 24.142593
				CHANNELS 3 Xrotation Yrotation Zrotation
				JOINT LeftLegRoll
				{
					OFFSET 0.000000 -0.000004 24.445602
					CHANNELS 3 Xrotation Yrotation Zrotation
					JOINT LeftFoot
					{
						OFFSET 0.000000 -0.000003 19.936600
						CHANNELS 3 Xrotation Yrotation Zrotation
						JOINT LeftToeBase
						{
							OFFSET 0.000000 -0.000003 16.853195
							CHANNELS 3 Xrotation Yrotation Zrotation
							End Site
							{
								OFFSET -0.032013 0.940779 8.161865
							}
						}
					}
				}
			}
		}
	}
}
MOTION
Frames: 13
Frame Time: 0.041667
33.799400 -7.282700 100.039001 3.605804 4.069753 6.641286 -2.375691 -0.177131 -0.016521 -0.748622 -0.353623 -0.038556 0.896473 -0.354061 -0.034317 6.461302 1.906562 -1.517530 -0.653348 -2.126252 -1.461051 -23.369887 -59.787166 -27.596348 -126.348350 -102.037801 -92.579697 0.000001 0.000005 0.000002 7.932854 -3.014828 -0.422103 0.000001 -0.000014 -3.000161 -5.000144 -7.999273 0.000129 -6.677946 61.864309 8.141848 -130.000725 105.642324 106.938421 -0.000001 0.000000 0.000001 3.049379 5.390340 0.689481 -0.000002 -0.000016 3.001250 -5.000192 7.999043 -0.000105 -13.128848 -186.659945 -0.952836 -179.999991 0.000005 -1.100995 150.131383 -3.698436 -2.120560 -0.000004 -0.000001 0.552587 70.921051 7.469804 0.741235 34.948524 -7.928922 -2.857567 -16.121208 177.583785 1.825722 -0.000004 -0.000004 -1.139310 -35.669888 1.115240 1.497529 -0.000007 0.000006 -0.682686 72.866118 -6.843517 -2.004049 36.328642 7.501362 0.063965 
33.765598 -7.250148 99.780602 3.694113 4.118952 6.610893 -2.397252 -0.184409 -0.010816 -0.791734 -0.368344 -0.027436 0.853364 -0.368647 -0.023022 6.929746 1.941047 -1.517748 -1.089349 -2.128246 -1.462619 -23.321917 -60.050900 -27.533642 -123.633118 -101.647517 -89.731959 -0.000001 0.000004 0.000001 7.940565 -2.815373 -0.431662 -0.000000 -0.000018 -3.000170 -5.000148 -7.999274 0.000121 -6.807409 62.242578 8.321831 -129.254281 105.259349 106.551320 -0.000000 0.000001 0.000002 2.949586 5.672524 0.670458 -0.000002 -0.000019 3.001251 -5.000192 7.999045 -0.000103 -13.431712 -186.827899 -0.985749 -179.999991 0.000005 -1.121007 149.526296 -3.653413 -2.122320 -0.000004 -0.000000 0.596196 71.633576 7.646816 0.221802 35.290471 -7.882405 -2.446818 -16.434103 177.625039 1.883829 -0.000004 -0.000004 -1.149720 -36.397675 1.003127 1.473854 -0.000003 0.000006 -0.741748 73.537293 -6.856968 -1.923098 36.745181 7.475092 -0.124276 
33.746700 -7.206575 99.395699 3.785223 4.170004 6.579765 -2.419546 -0.192198 -0.004815 -0.836293 -0.384106 -0.015755 0.808805 -0.384267 -0.011153 7.401516 1.969297 -1.517559 -1.527721 -2.119927 -1.463706 -23.271580 -60.303071 -27.468876 -120.665291 -101.287102 -86.616197 -0.000001 0.000002 -0.000002 7.944454 -2.600375 -0.442024 -0.000002 -0.000015 -3.000170 -5.000148 -7.999275 0.000121 -6.940125 62.621401 8.504965 -128.481691 104.873661 106.140156 -0.000002 0.000000 -0.000003 2.856587 5.957062 0.651566 -0.000001 -0.000019 3.001261 -5.000192 7.999043 -0.000105 -13.747122 -186.995840 -1.015410 -179.999991 0.000005 -1.142003 148.895269 -3.606435 -2.121479 -0.000003 -0.000001 0.642173 72.389166 7.817770 -0.322054 35.612039 -7.825156 -2.007824 -16.760308 177.665446 1.943309 -0.000003 -0.000004 -1.160550 -37.153589 0.886055 1.445692 -0.000005 0.000006 -0.803887 74.245167 -6.868991 -1.839413 37.141910 7.444256 -0.321001 
33.710297 -7.175407 99.229797 3.878463 4.222491 6.547924 -2.442234 -0.200483 0.001400 -0.881659 -0.400874 -0.003676 0.763441 -0.400888 0.001126 7.873225 1.993227 -1.516996 -1.967355 -2.103580 -1.464283 -23.218702 -60.542114 -27.401886 -117.442466 -100.960810 -83.236893 -0.000000 0.000002 0.000001 7.944297 -2.375549 -0.452890 -0.000001 -0.000017 -3.000169 -5.000144 -7.999271 0.000122 -7.075775 62.999308 8.690759 -127.674418 104.485727 105.692355 -0.000002 -0.000000 0.000001 2.771451 6.239661 0.633090 0.000002 -0.000017 3.001260 -5.000195 7.999044 -0.000104 -14.073993 -187.160830 -1.041446 -179.999991 0.000005 -1.163000 148.242207 -3.559328 -2.120755 -0.000004 0.000001 0.690112 73.180184 7.977359 -0.879632 35.907322 -7.759006 -1.552224 -17.097953 177.702124 2.003543 -0.000004 -0.000004 -1.171650 -37.930892 0.766037 1.413417 -0.000003 0.000005 -0.868481 74.983231 -6.878587 -1.755484 37.512806 7.409741 -0.521459 
33.696800 -7.127326 98.841789 3.973197 4.275996 6.515422 -2.465005 -0.209247 0.007746 -0.927190 -0.418610 0.008641 0.717910 -0.418474 0.013655 8.341483 2.014757 -1.516157 -2.407130 -2.081513 -1.464432 -23.163600 -60.766513 -27.332909 -113.966481 -100.672965 -79.602972 -0.000001 0.000004 -0.000002 7.939875 -2.146595 -0.463938 -0.000000 -0.000017 -3.000171 -5.000147 -7.999273 0.000122 -7.214010 63.374805 8.878691 -126.822980 104.096447 105.194380 0.000000 -0.000002 -0.000001 2.695275 6.515984 0.615276 -0.000001 -0.000020 3.001260 -5.000193 7.999044 -0.000105 -14.411778 -187.320875 -1.063265 -179.999991 0.000004 -1.183995 147.571250 -3.512218 -2.118882 -0.000002 0.000000 0.739616 73.998973 8.120890 -1.439637 36.170875 -7.686199 -1.091531 -17.445113 177.737942 2.062171 -0.000003 -0.000004 -1.182850 -38.723013 0.645050 1.377542 -0.000005 0.000006 -0.934911 75.745118 -6.884930 -1.673136 37.851904 7.372604 -0.720927 
33.664700 -7.096259 98.611389 4.068765 4.330100 6.482294 -2.487547 -0.218469 0.014145 -0.972246 -0.437278 0.021036 0.672856 -0.436991 0.026272 8.802889 2.035765 -1.515208 -2.845917 -2.055984 -1.464275 -23.106675 -60.974533 -27.262290 -110.247135 -100.428042 -75.731136 -0.000002 0.000004 -0.000001 7.930947 -1.919213 -0.474858 0.000002 -0.000017 -3.000170 -5.000146 -7.999275 0.000123 -7.354429 63.746401 9.068167 -125.915985 103.706935 104.631019 0.000001 -0.000001 -0.000003 2.629140 6.781731 0.598325 0.000001 -0.000018 3.001260 -5.000192 7.999045 -0.000105 -14.759460 -187.475961 -1.079842 -179.999991 0.000005 -1.205004 146.886374 -3.466063 -2.116141 -0.000001 -0.000001 0.790277 74.837631 8.244525 -1.990640 36.397480 -7.609343 -0.637152 -17.799816 177.769989 2.118600 -0.000003 -0.000004 -1.193990 -39.523477 0.525011 1.338729 -0.000004 0.000006 -1.002560 76.524285 -6.887395 -1.594669 38.153228 7.334105 -0.914726 
33.645805 -7.026688 98.237297 4.164518 4.384387 6.448605 -2.509530 -0.228136 0.020513 -1.016182 -0.456841 0.033348 0.628917 -0.456403 0.038817 9.254062 2.058154 -1.514345 -3.282611 -2.029268 -1.464005 -23.048029 -61.164631 -27.190102 -106.303439 -100.230533 -71.647428 0.000001 0.000005 -0.000002 7.917248 -1.699101 -0.485328 -0.000000 -0.000014 -3.000170 -5.000147 -7.999269 0.000125 -7.496546 64.112725 9.258524 -124.940552 103.317997 103.985272 0.000001 0.000001 -0.000001 2.574151 7.032568 0.582407 -0.000000 -0.000019 3.001259 -5.000195 7.999045 -0.000104 -15.116293 -187.622223 -1.091183 -179.999991 0.000005 -1.225003 146.191579 -3.420147 -2.113750 -0.000003 -0.000000 0.841695 75.688086 8.345365 -2.521031 36.581885 -7.531380 -0.200435 -18.160049 177.799236 2.171047 -0.000002 -0.000004 -1.204890 -40.325731 0.407778 1.297784 -0.000003 0.000006 -1.070800 77.314319 -6.885291 -1.522269 38.410959 7.295628 -1.098219 
33.614597 -7.000905 98.107597 4.259796 4.438463 6.414407 -2.530630 -0.238229 0.026774 -1.058367 -0.477257 0.045421 0.586735 -0.476673 0.051133 9.691612 2.083797 -1.513823 -3.716098 -2.003641 -1.463918 -22.987997 -61.335215 -27.116635 -102.162636 -100.084524 -67.386291 0.000002 0.000006 -0.000001 7.898529 -1.491965 -0.495026 -0.000001 -0.000016 -3.000169 -5.000147 -7.999277 0.000127 -7.639788 64.472000 9.449012 -123.882215 102.931087 103.238746 0.000001 -0.000000 0.000001 2.531402 7.264192 0.567676 0.000003 -0.000021 3.001260 -5.000195 7.999045 -0.000106 -15.481548 -187.759619 -1.096323 -179.999991 0.000005 -1.244005 145.490952 -3.376267 -2.110630 -0.000003 -0.000000 0.893464 76.542426 8.421218 -3.018683 36.719261 -7.455458 0.207375 -18.523917 177.824740 2.218318 -0.000002 -0.000004 -1.215409 -41.123159 0.295141 1.255664 -0.000005 0.000006 -1.139020 78.108752 -6.878232 -1.458086 38.619184 7.258696 -1.266845 
33.614700 -6.922256 97.734993 4.353960 4.491902 6.379763 -2.550533 -0.248730 0.032841 -1.098152 -0.498488 0.057095 0.546952 -0.497761 0.063059 10.112159 2.114546 -1.513950 -4.145284 -1.981347 -1.464330 -22.926510 -61.484721 -27.041827 -97.862076 -99.993710 -62.991959 -0.000001 0.000006 0.000000 7.874503 -1.303520 -0.503659 -0.000001 -0.000016 -3.000169 -5.000145 -7.999273 0.000122 -7.783588 64.823024 9.638896 -122.724989 102.547586 102.371545 0.000001 -0.000001 0.000003 2.501981 7.472263 0.554272 0.000002 -0.000018 3.001272 -5.000195 7.999044 -0.000104 -15.854281 -187.885349 -1.095145 -179.999991 0.000005 -1.260998 144.788290 -3.333706 -2.107055 -0.000003 -0.000000 0.945184 77.392231 8.470985 -3.471332 36.804792 -7.384871 0.575066 -18.889532 177.846446 2.258931 -0.000003 -0.000004 -1.225359 -41.908975 0.188819 1.213471 -0.000002 0.000006 -1.206590 78.900993 -6.865884 -1.404489 38.772170 7.224886 -1.416018 
33.574200 -6.875387 97.376198 4.446335 4.544309 6.344733 -2.568927 -0.259619 0.038640 -1.134897 -0.520491 0.068216 0.510207 -0.519629 0.074443 10.512299 2.152275 -1.515068 -4.569040 -1.964642 -1.465672 -22.864241 -61.611674 -26.966325 -93.448107 -99.961068 -58.518056 0.000001 0.000004 0.000000 7.844881 -1.139449 -0.510931 -0.000000 -0.000015 -3.000168 -5.000145 -7.999273 0.000126 -7.927261 65.164151 9.827274 -121.450080 102.169228 101.360854 0.000001 0.000000 0.000001 2.486984 7.652470 0.542339 -0.000000 -0.000018 3.001269 -5.000194 7.999045 -0.000104 -16.233606 -187.998430 -1.087050 -179.999991 0.000004 -1.276995 144.087758 -3.294204 -2.104008 -0.000003 -0.000000 0.996450 78.229476 8.494294 -3.866722 36.833950 -7.322880 0.891482 -19.255010 177.862525 2.292024 -0.000003 -0.000004 -1.234589 -42.676767 0.090452 1.172420 -0.000003 0.000006 -1.272900 79.684580 -6.847954 -1.363650 38.864043 7.195815 -1.541201 
33.572601 -6.721116 97.047493 4.536282 4.595270 6.309381 -2.585468 -0.270879 0.044091 -1.167963 -0.543226 0.078628 0.477144 -0.542236 0.085127 10.888715 2.198808 -1.517533 -4.986291 -1.955746 -1.468401 -22.801226 -61.714277 -26.890093 -88.971649 -99.988587 -54.022633 -0.000003 0.000003 -0.000000 7.809391 -1.005470 -0.516566 -0.000001 -0.000013 -3.000169 -5.000142 -7.999271 0.000122 -8.070074 65.494090 10.013255 -120.037651 101.798130 100.182927 0.000000 0.000002 -0.000001 2.487512 7.800495 0.532047 0.000002 -0.000018 3.001273 -5.000193 7.999045 -0.000103 -16.618748 -188.096074 -1.072004 -179.999991 0.000004 -1.289003 143.393374 -3.257073 -2.101771 -0.000004 -0.000001 1.046860 79.046196 8.491406 -4.192245 36.802203 -7.272667 1.145453 -19.618240 177.873890 2.315789 -0.000004 -0.000004 -1.242940 -43.419902 0.001608 1.133852 -0.000003 0.000006 -1.337320 80.453140 -6.824258 -1.337932 38.889079 7.173048 -1.637846 
33.537102 -6.683387 96.737503 4.623131 4.644385 6.273802 -2.599861 -0.282492 0.049113 -1.196709 -0.566649 0.088179 0.448401 -0.565543 0.094958 11.237925 2.255996 -1.521746 -5.395905 -1.956886 -1.473073 -22.738181 -61.791014 -26.813806 -84.487254 -100.077291 -49.567339 -0.000002 0.000002 -0.000001 7.767732 -0.907281 -0.520339 -0.000002 -0.000017 -3.000171 -5.000145 -7.999277 0.000122 -8.211128 65.811072 10.195731 -118.465724 101.436594 98.811725 -0.000000 0.000001 0.000001 2.504647 7.912014 0.523614 -0.000002 -0.000018 3.001269 -5.000195 7.999045 -0.000105 -17.008761 -188.176424 -1.049794 -179.999991 0.000005 -1.299002 142.708989 -3.223222 -2.099861 -0.000004 -0.000000 1.096010 79.834311 8.463571 -4.435543 36.705160 -7.237094 1.325749 -19.977357 177.878671 2.329366 -0.000005 -0.000004 -1.250240 -44.131652 -0.076215 1.099222 -0.000003 0.000006 -1.399241 81.200192 -6.794711 -1.329425 38.841561 7.158022 -1.701383 
33.537201 -6.600379 96.395203 4.710744 4.692295 6.236545 -2.613523 -0.294807 0.053988 -1.224005 -0.591468 0.097423 0.421108 -0.590249 0.104497 11.573864 2.325195 -1.527737 -5.810071 -1.966035 -1.479832 -22.668609 -61.831961 -26.730693 -79.963647 -100.232220 -45.111135 -0.000002 0.000004 0.000003 7.720263 -0.835526 -0.522897 -0.000001 -0.000019 -3.000170 -5.000147 -7.999275 0.000122 -8.356505 66.121531 10.381826 -116.734408 101.081322 97.264155 -0.000001 0.000001 -0.000000 2.530875 8.003099 0.518321 0.000001 -0.000018 3.001271 -5.000194 7.999044 -0.000108 -17.414433 -188.238101 -1.021105 -179.999991 0.000005 -1.305995 142.016859 -3.188663 -2.098903 -0.000006 -0.000000 1.145690 80.624864 8.410711 -4.597422 36.520636 -7.214858 1.440779 -20.340761 177.877046 2.335762 -0.000004 -0.000004 -1.256490 -44.826392 -0.146727 1.067499 -0.000004 0.000006 -1.460599 81.955884 -6.757860 -1.341119 38.696799 7.150738 -1.732732 
